<svg xmlns="http://www.w3.org/2000/svg" viewBox="0 0 980 220" role="img" aria-label="MetaDash">
  <defs>
    <linearGradient id="markStroke" x1="20" y1="24" x2="198" y2="202" gradientUnits="userSpaceOnUse">
      <stop offset="0" stop-color="#1877f2"/>
      <stop offset="0.48" stop-color="#0ea5e9"/>
      <stop offset="1" stop-color="#14b8a6"/>
    </linearGradient>
    <linearGradient id="word" x1="270" y1="52" x2="900" y2="150" gradientUnits="userSpaceOnUse">
      <stop offset="0" stop-color="#0f1b78"/>
      <stop offset="0.52" stop-color="#1d4ed8"/>
      <stop offset="1" stop-color="#14b8a6"/>
    </linearGradient>
    <filter id="soft" x="-20%" y="-20%" width="140%" height="140%" color-interpolation-filters="sRGB">
      <feDropShadow dx="0" dy="10" stdDeviation="12" flood-color="#0f172a" flood-opacity="0.10"/>
    </filter>
  </defs>

  <g filter="url(#soft)">
    <path d="M38 72c0-25 28-39 48-24l33 25 33-25c20-15 48-1 48 24v91c0 18-14 32-32 32h-43l-33 26-6-26H70c-18 0-32-14-32-32V72Z" fill="#fff"/>
    <path d="M38 72c0-25 28-39 48-24l33 25 33-25c20-15 48-1 48 24v91c0 18-14 32-32 32h-43l-33 26-6-26H70c-18 0-32-14-32-32V72Z" fill="none" stroke="url(#markStroke)" stroke-width="18" stroke-linejoin="round"/>
  </g>
  <rect x="64" y="88" width="84" height="68" rx="11" fill="#f8fbff"/>
  <rect x="155" y="88" width="37" height="68" rx="10" fill="#fff"/>
  <circle cx="76" cy="108" r="7" fill="#14b8a6"/>
  <circle cx="76" cy="129" r="7" fill="#6366f1"/>
  <circle cx="76" cy="150" r="7" fill="#2494ff"/>
  <rect x="91" y="102" width="47" height="6" rx="3" fill="#dbe5ee"/>
  <rect x="91" y="119" width="37" height="6" rx="3" fill="#dbe5ee"/>
  <rect x="91" y="141" width="50" height="6" rx="3" fill="#dbe5ee"/>
  <rect x="166" y="119" width="7" height="25" rx="2" fill="#14b8a6"/>
  <rect x="178" y="107" width="7" height="37" rx="2" fill="#1877f2"/>
  <circle cx="176" cy="158" r="14" fill="none" stroke="#0ea5a8" stroke-width="6"/>
  <path d="M169 157l5 5 10-12" fill="none" stroke="#0ea5a8" stroke-width="5" stroke-linecap="round" stroke-linejoin="round"/>

  <text x="270" y="150" font-family="Manrope, Inter, Arial, sans-serif" font-size="104" font-weight="800" letter-spacing="-5" fill="url(#word)">MetaDash</text>
</svg>
